<?xml version="1.0" encoding="UTF-8" standalone="no"?>
<svg
   version="1.1"
   width="32"
   height="64"
   shape-rendering="crispEdges"
   id="svg580"
   sodipodi:docname="ehwaz.svg"
   inkscape:version="1.1.2 (b8e25be833, 2022-02-05)"
   xmlns:inkscape="http://www.inkscape.org/namespaces/inkscape"
   xmlns:sodipodi="http://sodipodi.sourceforge.net/DTD/sodipodi-0.dtd"
   xmlns="http://www.w3.org/2000/svg"
   xmlns:svg="http://www.w3.org/2000/svg">
  <defs
     id="defs584" />
  <sodipodi:namedview
     id="namedview582"
     pagecolor="#505050"
     bordercolor="#eeeeee"
     borderopacity="1"
     inkscape:pageshadow="0"
     inkscape:pageopacity="0"
     inkscape:pagecheckerboard="0"
     showgrid="false"
     inkscape:zoom="12.984375"
     inkscape:cx="15.980746"
     inkscape:cy="32.038508"
     inkscape:window-width="1920"
     inkscape:window-height="1017"
     inkscape:window-x="-8"
     inkscape:window-y="-8"
     inkscape:window-maximized="1"
     inkscape:current-layer="svg580" />
  <path
     id="rect2"
     d="m 8,18.5 v 1 H 7 v 1 1 1 1 1 H 6 v 1 1 1 1 1 1 H 5 v 1 1 1 1 1 1 1 1 1 1 1 1 1 1 1 h 1 1 v -1 -1 h 1 v -1 -1 -1 -1 -1 -1 -1 -1 -1 -1 -1 h 1 v -1 -1 -1 -1 -1 h 1 v -1 -1 -1 h 1 v 1 1 h 1 v 1 1 1 h 1 v 1 1 h 1 v 1 h 1 v 1 h 1 1 v -1 h 1 v -1 h 1 v -1 h 1 v -1 -1 h 1 v 1 1 1 1 1 h -1 v 1 1 1 1 1 1 1 1 1 1 h 1 v 1 h 1 v 1 h 1 v -1 -1 h 1 v -1 -1 -1 -1 -1 -1 -1 -1 -1 -1 h 1 v -1 -1 -1 -1 -1 -1 h 1 v -1 -1 -1 -1 h 1 v -1 -1 -1 h -1 v -1 h -1 v -1 h -1 -1 -1 -1 v 1 h -1 v 1 h -1 v 1 1 h -1 v 1 1 h -1 v 1 h -1 -1 v -1 -1 h -1 v -1 h -1 v -1 -1 h -1 v -1 h -1 v -1 H 10 9 Z" />
</svg>
