<?xml version="1.0" encoding="UTF-8" standalone="no"?>
<svg
   version="1.1"
   width="32"
   height="64"
   shape-rendering="crispEdges"
   id="svg662"
   sodipodi:docname="hagalaz.svg"
   inkscape:version="1.1.2 (b8e25be833, 2022-02-05)"
   xmlns:inkscape="http://www.inkscape.org/namespaces/inkscape"
   xmlns:sodipodi="http://sodipodi.sourceforge.net/DTD/sodipodi-0.dtd"
   xmlns="http://www.w3.org/2000/svg"
   xmlns:svg="http://www.w3.org/2000/svg">
  <defs
     id="defs666" />
  <sodipodi:namedview
     id="namedview664"
     pagecolor="#505050"
     bordercolor="#eeeeee"
     borderopacity="1"
     inkscape:pageshadow="0"
     inkscape:pageopacity="0"
     inkscape:pagecheckerboard="0"
     showgrid="false"
     inkscape:zoom="12.984375"
     inkscape:cx="15.980746"
     inkscape:cy="25.877256"
     inkscape:window-width="1920"
     inkscape:window-height="1017"
     inkscape:window-x="-8"
     inkscape:window-y="-8"
     inkscape:window-maximized="1"
     inkscape:current-layer="svg662" />
  <path
     id="rect2"
     d="m 6,15 v 1 1 H 5 v 1 1 1 1 1 1 H 4 v 1 1 1 1 1 1 1 1 1 1 1 1 1 1 1 1 1 1 1 1 1 1 1 1 1 h 1 v 1 h 1 1 v -1 -1 -1 -1 -1 -1 -1 -1 -1 -1 -1 -1 h 1 v -1 -1 -1 -1 -1 -1 -1 -1 -1 h 1 v 1 h 1 1 v 1 h 1 v 1 h 1 v 1 h 1 v 1 1 h 1 v 1 h 1 v 1 h 1 v 1 h 1 v 1 h 1 v 1 1 h 1 v 1 h 1 v 1 1 h 1 v 1 1 1 1 1 1 h 1 1 v -1 h 1 v -1 -1 -1 -1 -1 -1 -1 -1 -1 -1 -1 -1 -1 -1 h 1 v -1 -1 -1 -1 -1 -1 -1 -1 -1 -1 h 1 v -1 -1 -1 -1 -1 h 1 v -1 -1 -1 -1 h -1 -1 -1 -1 v 1 h -1 v 1 1 1 h -1 v 1 1 1 1 1 1 1 1 1 1 1 1 1 h -1 v 1 1 1 H 20 V 34 H 19 V 33 H 18 V 32 31 H 17 V 30 H 16 V 29 H 15 V 28 H 14 V 27 H 13 V 26 H 12 V 25 H 11 V 24 H 10 9 V 23 22 21 20 19 18 17 16 H 8 V 15 H 7 Z" />
</svg>
