<?xml version="1.0" encoding="UTF-8" standalone="no"?>
<svg
   version="1.1"
   width="32"
   height="64"
   shape-rendering="crispEdges"
   id="svg488"
   sodipodi:docname="inguz.svg"
   inkscape:version="1.1.2 (b8e25be833, 2022-02-05)"
   xmlns:inkscape="http://www.inkscape.org/namespaces/inkscape"
   xmlns:sodipodi="http://sodipodi.sourceforge.net/DTD/sodipodi-0.dtd"
   xmlns="http://www.w3.org/2000/svg"
   xmlns:svg="http://www.w3.org/2000/svg">
  <defs
     id="defs492" />
  <sodipodi:namedview
     id="namedview490"
     pagecolor="#505050"
     bordercolor="#eeeeee"
     borderopacity="1"
     inkscape:pageshadow="0"
     inkscape:pageopacity="0"
     inkscape:pagecheckerboard="0"
     showgrid="false"
     inkscape:zoom="9.1813396"
     inkscape:cx="19.005941"
     inkscape:cy="25.486477"
     inkscape:window-width="1920"
     inkscape:window-height="1017"
     inkscape:window-x="-8"
     inkscape:window-y="-8"
     inkscape:window-maximized="1"
     inkscape:current-layer="svg488" />
  <path
     id="rect2"
     d="m 14,16.5 v 1 h -1 v 1 h -1 v 1 1 h -1 v 1 H 10 9 v 1 H 8 v 1 H 7 v 1 H 6 v 1 H 5 v 1 1 h 1 v 1 1 1 1 h 1 v 1 1 h 1 v 1 1 h 1 v 1 1 h 1 v 1 1 h 1 v 1 1 h 1 v 1 1 h 1 v 1 1 h 1 v 1 1 h 1 1 v -1 -1 -1 -1 h -1 v -1 -1 h -1 v -1 -1 -1 h -1 v -1 -1 h -1 v -1 -1 h -1 v -1 -1 h -1 v -1 -1 H 9 v -1 -1 h 1 v -1 h 1 v -1 h 1 v -1 h 1 1 v -1 h 1 v -1 h 1 1 v 1 h 1 v 1 h 1 v 1 h 1 v 1 h 1 v 1 h 1 v 1 1 h -1 v 1 h -1 v 1 h -1 v 1 h -1 v 1 1 h -1 v 1 h -1 v 1 1 h -1 v 1 1 1 h 1 v 1 h 1 v -1 h 1 v -1 h 1 v -1 h 1 v -1 h 1 v -1 h 1 v -1 h 1 v -1 h 1 v -1 h 1 v -1 h 1 v -1 h 1 v -1 -1 -1 h -1 v -1 -1 h -1 v -1 h -1 v -1 h -1 v -1 h -1 v -1 h -1 v -1 h -1 v -1 h -1 v -1 -1 h -1 v -1 -1 h -1 v -1 h -1 -1 z" />
</svg>
