<?xml version="1.0" encoding="UTF-8" standalone="no"?>
<svg
   version="1.1"
   width="32"
   height="64"
   shape-rendering="crispEdges"
   id="svg464"
   sodipodi:docname="jera.svg"
   inkscape:version="1.1.2 (b8e25be833, 2022-02-05)"
   xmlns:inkscape="http://www.inkscape.org/namespaces/inkscape"
   xmlns:sodipodi="http://sodipodi.sourceforge.net/DTD/sodipodi-0.dtd"
   xmlns="http://www.w3.org/2000/svg"
   xmlns:svg="http://www.w3.org/2000/svg">
  <defs
     id="defs468" />
  <sodipodi:namedview
     id="namedview466"
     pagecolor="#505050"
     bordercolor="#eeeeee"
     borderopacity="1"
     inkscape:pageshadow="0"
     inkscape:pageopacity="0"
     inkscape:pagecheckerboard="0"
     showgrid="false"
     inkscape:zoom="12.984375"
     inkscape:cx="15.980746"
     inkscape:cy="32.038508"
     inkscape:window-width="1920"
     inkscape:window-height="1017"
     inkscape:window-x="-8"
     inkscape:window-y="-8"
     inkscape:window-maximized="1"
     inkscape:current-layer="svg464" />
  <path
     id="rect2"
     d="m 16,16 v 1 h -1 -1 v 1 h -1 v 1 h -1 v 1 h -1 v 1 h -1 v 1 H 9 8 v 1 H 7 v 1 H 6 v 1 H 5 v 1 H 4 v 1 1 1 h 1 v 1 1 h 1 v 1 h 1 v 1 h 1 v 1 h 1 v 1 h 1 1 v 1 h 1 v 1 h 1 1 v 1 h 1 v -1 h 1 V 36 H 15 V 35 H 14 V 34 H 13 V 33 H 12 V 32 H 11 V 31 H 10 V 30 H 9 v -1 -1 h 1 v -1 h 1 v -1 h 1 1 v -1 h 1 v -1 h 1 1 v -1 h 1 v -1 h 1 v -1 h 1 v -1 -1 h -1 v -1 -1 h -1 v -1 z m 1,12 v 1 1 1 h 1 v 1 h 1 v 1 1 h 1 v 1 h 1 v 1 h 1 v 1 h -1 v 1 h -1 v 1 h -1 v 1 h -1 v 1 h -1 v 1 h -1 v 1 1 h -1 v 1 1 1 h 1 v 1 h 1 v -1 h 1 1 v -1 h 1 v -1 h 1 1 v -1 h 1 v -1 h 1 1 v -1 h 1 v -1 h 1 v -1 h 1 v -1 -1 h -1 v -1 -1 h -1 v -1 h -1 v -1 h -1 v -1 h -1 v -1 h -1 v -1 h -1 -1 v -1 h -1 v -1 h -1 v -1 z" />
</svg>
