<?xml version="1.0" encoding="UTF-8" standalone="no"?>
<svg
   version="1.1"
   width="32"
   height="64"
   shape-rendering="crispEdges"
   id="svg396"
   sodipodi:docname="nauthiz.svg"
   inkscape:version="1.1.2 (b8e25be833, 2022-02-05)"
   xmlns:inkscape="http://www.inkscape.org/namespaces/inkscape"
   xmlns:sodipodi="http://sodipodi.sourceforge.net/DTD/sodipodi-0.dtd"
   xmlns="http://www.w3.org/2000/svg"
   xmlns:svg="http://www.w3.org/2000/svg">
  <defs
     id="defs400" />
  <sodipodi:namedview
     id="namedview398"
     pagecolor="#505050"
     bordercolor="#eeeeee"
     borderopacity="1"
     inkscape:pageshadow="0"
     inkscape:pageopacity="0"
     inkscape:pagecheckerboard="0"
     showgrid="false"
     inkscape:zoom="12.984375"
     inkscape:cx="15.980746"
     inkscape:cy="32.038508"
     inkscape:window-width="1920"
     inkscape:window-height="1017"
     inkscape:window-x="-8"
     inkscape:window-y="-8"
     inkscape:window-maximized="1"
     inkscape:current-layer="svg396" />
  <path
     id="rect2"
     d="M 14 15.5 L 14 16.5 L 14 17.5 L 14 18.5 L 14 19.5 L 14 20.5 L 14 21.5 L 14 22.5 L 13 22.5 L 13 21.5 L 12 21.5 L 12 20.5 L 11 20.5 L 10 20.5 L 9 20.5 L 9 21.5 L 9 22.5 L 10 22.5 L 10 23.5 L 10 24.5 L 11 24.5 L 11 25.5 L 12 25.5 L 12 26.5 L 13 26.5 L 13 27.5 L 13 28.5 L 13 29.5 L 13 30.5 L 13 31.5 L 12 31.5 L 12 32.5 L 12 33.5 L 12 34.5 L 12 35.5 L 12 36.5 L 12 37.5 L 12 38.5 L 12 39.5 L 12 40.5 L 12 41.5 L 12 42.5 L 12 43.5 L 12 44.5 L 12 45.5 L 12 46.5 L 12 47.5 L 13 47.5 L 13 48.5 L 14 48.5 L 14 47.5 L 15 47.5 L 15 46.5 L 15 45.5 L 16 45.5 L 16 44.5 L 16 43.5 L 16 42.5 L 16 41.5 L 16 40.5 L 17 40.5 L 17 39.5 L 17 38.5 L 17 37.5 L 17 36.5 L 17 35.5 L 17 34.5 L 17 33.5 L 18 33.5 L 18 32.5 L 19 32.5 L 19 33.5 L 19 34.5 L 20 34.5 L 20 35.5 L 21 35.5 L 21 36.5 L 22 36.5 L 22 37.5 L 23 37.5 L 23 36.5 L 23 35.5 L 23 34.5 L 23 33.5 L 22 33.5 L 22 32.5 L 22 31.5 L 21 31.5 L 21 30.5 L 21 29.5 L 20 29.5 L 20 28.5 L 19 28.5 L 19 27.5 L 18 27.5 L 18 26.5 L 18 25.5 L 19 25.5 L 19 24.5 L 19 23.5 L 19 22.5 L 19 21.5 L 19 20.5 L 19 19.5 L 20 19.5 L 20 18.5 L 20 17.5 L 19 17.5 L 18 17.5 L 18 16.5 L 17 16.5 L 16 16.5 L 16 15.5 L 15 15.5 L 14 15.5 z " />
</svg>
