<?xml version="1.0" encoding="UTF-8" standalone="no"?>
<svg
   version="1.1"
   width="160"
   height="24"
   shape-rendering="crispEdges"
   id="svg4754"
   sodipodi:docname="futhark ornament.svg"
   inkscape:version="1.1.2 (b8e25be833, 2022-02-05)"
   xmlns:inkscape="http://www.inkscape.org/namespaces/inkscape"
   xmlns:sodipodi="http://sodipodi.sourceforge.net/DTD/sodipodi-0.dtd"
   xmlns="http://www.w3.org/2000/svg"
   xmlns:svg="http://www.w3.org/2000/svg">
  <defs
     id="defs4758" />
  <sodipodi:namedview
     id="namedview4756"
     pagecolor="#505050"
     bordercolor="#eeeeee"
     borderopacity="1"
     inkscape:pageshadow="0"
     inkscape:pageopacity="0"
     inkscape:pagecheckerboard="0"
     showgrid="false"
     inkscape:zoom="6.6125"
     inkscape:cx="79.924386"
     inkscape:cy="11.94707"
     inkscape:window-width="1920"
     inkscape:window-height="1017"
     inkscape:window-x="-8"
     inkscape:window-y="-8"
     inkscape:window-maximized="1"
     inkscape:current-layer="svg4754" />
  <path
     id="rect2"
     d="M 0 0 L 0 1 L 0 2 L 1 2 L 2 2 L 2 3 L 3 3 L 4 3 L 5 3 L 6 3 L 6 2 L 7 2 L 8 2 L 9 2 L 10 2 L 11 2 L 11 3 L 12 3 L 13 3 L 13 2 L 14 2 L 14 3 L 15 3 L 16 3 L 17 3 L 17 2 L 18 2 L 18 3 L 19 3 L 20 3 L 21 3 L 21 2 L 22 2 L 23 2 L 24 2 L 25 2 L 26 2 L 27 2 L 28 2 L 29 2 L 30 2 L 30 3 L 31 3 L 32 3 L 33 3 L 34 3 L 35 3 L 36 3 L 37 3 L 38 3 L 38 2 L 39 2 L 39 3 L 40 3 L 41 3 L 41 2 L 42 2 L 43 2 L 44 2 L 44 3 L 45 3 L 46 3 L 47 3 L 48 3 L 49 3 L 50 3 L 51 3 L 51 2 L 52 2 L 53 2 L 54 2 L 54 3 L 55 3 L 56 3 L 57 3 L 58 3 L 59 3 L 60 3 L 61 3 L 62 3 L 63 3 L 64 3 L 65 3 L 65 2 L 66 2 L 67 2 L 68 2 L 68 3 L 69 3 L 70 3 L 71 3 L 72 3 L 73 3 L 74 3 L 75 3 L 76 3 L 77 3 L 78 3 L 79 3 L 80 3 L 80 2 L 81 2 L 81 3 L 82 3 L 83 3 L 84 3 L 85 3 L 86 3 L 87 3 L 88 3 L 88 2 L 89 2 L 90 2 L 91 2 L 92 2 L 93 2 L 94 2 L 95 2 L 96 2 L 97 2 L 98 2 L 99 2 L 99 3 L 100 3 L 101 3 L 101 2 L 102 2 L 103 2 L 104 2 L 105 2 L 106 2 L 107 2 L 108 2 L 108 3 L 109 3 L 109 2 L 110 2 L 111 2 L 111 3 L 112 3 L 113 3 L 114 3 L 115 3 L 115 2 L 116 2 L 117 2 L 118 2 L 119 2 L 120 2 L 120 3 L 121 3 L 122 3 L 123 3 L 124 3 L 125 3 L 126 3 L 127 3 L 128 3 L 129 3 L 130 3 L 131 3 L 131 2 L 132 2 L 133 2 L 134 2 L 135 2 L 135 3 L 136 3 L 137 3 L 138 3 L 139 3 L 140 3 L 141 3 L 142 3 L 143 3 L 144 3 L 145 3 L 145 2 L 146 2 L 147 2 L 148 2 L 149 2 L 149 3 L 150 3 L 150 2 L 151 2 L 152 2 L 152 3 L 153 3 L 154 3 L 155 3 L 156 3 L 157 3 L 158 3 L 159 3 L 160 3 L 160 2 L 160 1 L 160 0 L 159 0 L 158 0 L 157 0 L 156 0 L 155 0 L 154 0 L 153 0 L 152 0 L 151 0 L 150 0 L 149 0 L 148 0 L 147 0 L 146 0 L 145 0 L 144 0 L 143 0 L 142 0 L 141 0 L 140 0 L 139 0 L 138 0 L 137 0 L 136 0 L 135 0 L 134 0 L 133 0 L 132 0 L 131 0 L 130 0 L 129 0 L 128 0 L 127 0 L 126 0 L 125 0 L 124 0 L 123 0 L 122 0 L 121 0 L 120 0 L 119 0 L 118 0 L 117 0 L 116 0 L 115 0 L 114 0 L 113 0 L 112 0 L 111 0 L 110 0 L 109 0 L 108 0 L 107 0 L 106 0 L 105 0 L 104 0 L 103 0 L 102 0 L 101 0 L 100 0 L 99 0 L 98 0 L 97 0 L 96 0 L 95 0 L 94 0 L 93 0 L 92 0 L 91 0 L 90 0 L 89 0 L 88 0 L 87 0 L 86 0 L 85 0 L 84 0 L 83 0 L 82 0 L 81 0 L 80 0 L 79 0 L 78 0 L 77 0 L 76 0 L 75 0 L 74 0 L 73 0 L 72 0 L 71 0 L 70 0 L 69 0 L 68 0 L 67 0 L 66 0 L 65 0 L 64 0 L 63 0 L 62 0 L 61 0 L 60 0 L 59 0 L 58 0 L 57 0 L 56 0 L 55 0 L 54 0 L 53 0 L 52 0 L 51 0 L 50 0 L 49 0 L 48 0 L 47 0 L 46 0 L 45 0 L 44 0 L 43 0 L 42 0 L 41 0 L 40 0 L 39 0 L 38 0 L 37 0 L 36 0 L 35 0 L 34 0 L 33 0 L 32 0 L 31 0 L 30 0 L 29 0 L 28 0 L 27 0 L 26 0 L 25 0 L 24 0 L 23 0 L 22 0 L 21 0 L 20 0 L 19 0 L 18 0 L 17 0 L 16 0 L 15 0 L 14 0 L 13 0 L 12 0 L 11 0 L 10 0 L 9 0 L 8 0 L 7 0 L 7 1 L 6 1 L 5 1 L 5 0 L 4 0 L 3 0 L 2 0 L 1 0 L 0 0 z M 0 4 L 0 5 L 0 6 L 0 7 L 1 7 L 1 6 L 2 6 L 2 7 L 1 7 L 1 8 L 1 9 L 0 9 L 0 10 L 0 11 L 0 12 L 0 13 L 0 14 L 0 15 L 0 16 L 1 16 L 2 16 L 2 17 L 1 17 L 1 18 L 0 18 L 0 19 L 0 20 L 0 21 L 1 21 L 1 20 L 2 20 L 3 20 L 3 19 L 4 19 L 5 19 L 5 20 L 6 20 L 7 20 L 7 21 L 8 21 L 9 21 L 10 21 L 11 21 L 12 21 L 13 21 L 14 21 L 15 21 L 16 21 L 16 20 L 17 20 L 18 20 L 19 20 L 19 19 L 20 19 L 20 20 L 21 20 L 21 21 L 22 21 L 23 21 L 24 21 L 25 21 L 26 21 L 27 21 L 28 21 L 29 21 L 30 21 L 31 21 L 31 20 L 32 20 L 33 20 L 34 20 L 34 19 L 35 19 L 36 19 L 36 20 L 37 20 L 37 21 L 38 21 L 39 21 L 40 21 L 41 21 L 42 21 L 43 21 L 43 20 L 43 19 L 44 19 L 44 20 L 45 20 L 46 20 L 46 21 L 47 21 L 48 21 L 49 21 L 50 21 L 51 21 L 52 21 L 53 21 L 54 21 L 55 21 L 56 21 L 57 21 L 58 21 L 59 21 L 59 20 L 59 19 L 59 18 L 58 18 L 58 17 L 57 17 L 57 16 L 57 15 L 56 15 L 56 14 L 55 14 L 55 13 L 54 13 L 54 12 L 54 11 L 55 11 L 55 10 L 56 10 L 57 10 L 57 9 L 58 9 L 58 8 L 57 8 L 57 7 L 58 7 L 58 8 L 59 8 L 60 8 L 60 9 L 61 9 L 62 9 L 62 10 L 63 10 L 63 11 L 64 11 L 65 11 L 65 12 L 66 12 L 66 13 L 67 13 L 67 14 L 68 14 L 69 14 L 69 15 L 70 15 L 70 16 L 71 16 L 71 17 L 72 17 L 72 18 L 71 18 L 70 18 L 70 19 L 69 19 L 68 19 L 67 19 L 66 19 L 65 19 L 64 19 L 63 19 L 63 18 L 64 18 L 64 17 L 65 17 L 65 16 L 66 16 L 66 15 L 67 15 L 67 14 L 66 14 L 66 13 L 65 13 L 65 12 L 64 12 L 64 13 L 63 13 L 63 14 L 62 14 L 62 15 L 62 16 L 61 16 L 61 17 L 61 18 L 60 18 L 60 19 L 60 20 L 60 21 L 61 21 L 62 21 L 63 21 L 64 21 L 65 21 L 66 21 L 67 21 L 68 21 L 69 21 L 70 21 L 71 21 L 72 21 L 73 21 L 73 20 L 74 20 L 74 19 L 73 19 L 73 18 L 74 18 L 74 19 L 75 19 L 75 20 L 76 20 L 77 20 L 77 21 L 78 21 L 79 21 L 80 21 L 81 21 L 81 20 L 82 20 L 83 20 L 83 19 L 84 19 L 85 19 L 85 20 L 86 20 L 87 20 L 88 20 L 88 21 L 89 21 L 90 21 L 91 21 L 92 21 L 93 21 L 94 21 L 95 21 L 96 21 L 97 21 L 97 20 L 98 20 L 99 20 L 99 19 L 100 19 L 101 19 L 101 18 L 102 18 L 103 18 L 103 17 L 104 17 L 105 17 L 105 16 L 106 16 L 106 15 L 107 15 L 108 15 L 108 14 L 109 14 L 109 13 L 110 13 L 110 12 L 111 12 L 112 12 L 112 11 L 113 11 L 113 10 L 114 10 L 114 9 L 115 9 L 115 8 L 116 8 L 117 8 L 117 7 L 118 7 L 119 7 L 120 7 L 121 7 L 122 7 L 122 8 L 122 9 L 121 9 L 121 10 L 121 11 L 121 12 L 120 12 L 119 12 L 119 11 L 119 10 L 119 9 L 118 9 L 117 9 L 116 9 L 116 10 L 116 11 L 116 12 L 116 13 L 117 13 L 117 14 L 116 14 L 116 15 L 116 16 L 115 16 L 115 17 L 114 17 L 113 17 L 113 18 L 112 18 L 111 18 L 110 18 L 109 18 L 108 18 L 108 19 L 107 19 L 106 19 L 105 19 L 105 18 L 104 18 L 103 18 L 103 19 L 102 19 L 101 19 L 101 20 L 101 21 L 102 21 L 103 21 L 104 21 L 105 21 L 106 21 L 107 21 L 108 21 L 109 21 L 110 21 L 111 21 L 112 21 L 112 20 L 113 20 L 114 20 L 115 20 L 115 19 L 116 19 L 116 20 L 117 20 L 118 20 L 118 21 L 119 21 L 120 21 L 121 21 L 122 21 L 123 21 L 123 20 L 124 20 L 125 20 L 126 20 L 126 21 L 127 21 L 128 21 L 129 21 L 130 21 L 131 21 L 132 21 L 133 21 L 134 21 L 135 21 L 136 21 L 137 21 L 138 21 L 139 21 L 140 21 L 140 20 L 140 19 L 139 19 L 139 18 L 139 17 L 138 17 L 138 16 L 137 16 L 137 15 L 136 15 L 136 14 L 135 14 L 135 13 L 134 13 L 134 12 L 134 11 L 135 11 L 136 11 L 136 10 L 137 10 L 137 9 L 138 9 L 138 8 L 137 8 L 137 7 L 138 7 L 139 7 L 139 8 L 140 8 L 141 8 L 141 9 L 142 9 L 143 9 L 143 10 L 144 10 L 144 11 L 145 11 L 145 12 L 145 13 L 144 13 L 144 14 L 143 14 L 143 15 L 142 15 L 142 16 L 142 17 L 141 17 L 141 18 L 141 19 L 141 20 L 141 21 L 142 21 L 143 21 L 144 21 L 145 21 L 146 21 L 147 21 L 148 21 L 149 21 L 150 21 L 151 21 L 152 21 L 153 21 L 153 20 L 154 20 L 154 19 L 155 19 L 156 19 L 156 20 L 157 20 L 157 21 L 158 21 L 159 21 L 160 21 L 160 20 L 160 19 L 160 18 L 159 18 L 158 18 L 158 17 L 157 17 L 157 16 L 158 16 L 159 16 L 159 15 L 160 15 L 160 14 L 160 13 L 160 12 L 160 11 L 160 10 L 160 9 L 159 9 L 159 8 L 158 8 L 158 7 L 157 7 L 157 6 L 156 6 L 155 6 L 155 5 L 154 5 L 153 5 L 153 4 L 152 4 L 151 4 L 150 4 L 149 4 L 148 4 L 147 4 L 146 4 L 145 4 L 144 4 L 143 4 L 142 4 L 141 4 L 141 5 L 140 5 L 139 5 L 139 4 L 138 4 L 137 4 L 136 4 L 135 4 L 134 4 L 133 4 L 132 4 L 131 4 L 130 4 L 129 4 L 128 4 L 127 4 L 127 5 L 126 5 L 125 5 L 125 6 L 124 6 L 124 5 L 123 5 L 123 4 L 122 4 L 121 4 L 120 4 L 119 4 L 118 4 L 117 4 L 116 4 L 116 5 L 115 5 L 115 6 L 114 6 L 114 7 L 113 7 L 113 6 L 114 6 L 114 5 L 113 5 L 113 4 L 112 4 L 111 4 L 110 4 L 109 4 L 108 4 L 107 4 L 106 4 L 105 4 L 104 4 L 103 4 L 102 4 L 101 4 L 100 4 L 100 5 L 101 5 L 101 6 L 101 7 L 101 8 L 102 8 L 102 9 L 102 10 L 103 10 L 103 11 L 104 11 L 104 12 L 105 12 L 106 12 L 106 11 L 107 11 L 107 10 L 106 10 L 106 9 L 105 9 L 105 8 L 104 8 L 104 7 L 104 6 L 105 6 L 106 6 L 107 6 L 108 6 L 109 6 L 110 6 L 111 6 L 111 7 L 112 7 L 112 8 L 111 8 L 111 9 L 110 9 L 110 10 L 109 10 L 109 11 L 108 11 L 108 12 L 107 12 L 107 13 L 106 13 L 106 14 L 105 14 L 105 15 L 104 15 L 103 15 L 102 15 L 102 16 L 101 16 L 100 16 L 100 17 L 99 17 L 98 17 L 98 18 L 97 18 L 96 18 L 96 17 L 97 17 L 98 17 L 98 16 L 98 15 L 97 15 L 96 15 L 96 14 L 95 14 L 94 14 L 94 13 L 93 13 L 93 12 L 94 12 L 95 12 L 95 11 L 96 11 L 96 10 L 97 10 L 97 9 L 97 8 L 98 8 L 98 7 L 99 7 L 99 6 L 99 5 L 99 4 L 98 4 L 97 4 L 96 4 L 95 4 L 94 4 L 93 4 L 92 4 L 91 4 L 90 4 L 89 4 L 88 4 L 87 4 L 86 4 L 85 4 L 85 5 L 84 5 L 84 6 L 83 6 L 83 5 L 83 4 L 82 4 L 81 4 L 80 4 L 79 4 L 78 4 L 77 4 L 77 5 L 76 5 L 76 6 L 77 6 L 77 7 L 78 7 L 79 7 L 80 7 L 81 7 L 82 7 L 82 8 L 81 8 L 81 9 L 81 10 L 80 10 L 80 11 L 79 11 L 79 10 L 79 9 L 78 9 L 78 8 L 77 8 L 77 7 L 76 7 L 76 6 L 75 6 L 75 5 L 74 5 L 73 5 L 72 5 L 72 4 L 71 4 L 70 4 L 69 4 L 68 4 L 67 4 L 66 4 L 65 4 L 64 4 L 63 4 L 62 4 L 61 4 L 61 5 L 60 5 L 59 5 L 58 5 L 58 4 L 57 4 L 56 4 L 55 4 L 54 4 L 53 4 L 52 4 L 51 4 L 50 4 L 49 4 L 48 4 L 47 4 L 46 4 L 46 5 L 45 5 L 45 6 L 44 6 L 44 5 L 43 5 L 42 5 L 42 4 L 41 4 L 40 4 L 39 4 L 38 4 L 37 4 L 36 4 L 36 5 L 35 5 L 34 5 L 33 5 L 33 4 L 32 4 L 31 4 L 30 4 L 29 4 L 28 4 L 27 4 L 26 4 L 25 4 L 24 4 L 23 4 L 22 4 L 21 4 L 20 4 L 20 5 L 20 6 L 20 7 L 21 7 L 21 8 L 21 9 L 22 9 L 22 10 L 23 10 L 23 11 L 23 12 L 24 12 L 25 12 L 26 12 L 26 11 L 27 11 L 27 10 L 26 10 L 26 9 L 25 9 L 25 8 L 24 8 L 24 7 L 23 7 L 23 6 L 24 6 L 25 6 L 26 6 L 27 6 L 28 6 L 29 6 L 30 6 L 30 7 L 31 7 L 32 7 L 32 8 L 31 8 L 30 8 L 30 9 L 29 9 L 29 10 L 28 10 L 28 11 L 27 11 L 27 12 L 26 12 L 26 13 L 25 13 L 24 13 L 24 14 L 23 14 L 23 15 L 22 15 L 21 15 L 21 16 L 20 16 L 19 16 L 19 17 L 18 17 L 18 16 L 17 16 L 17 15 L 16 15 L 15 15 L 15 16 L 14 16 L 14 17 L 15 17 L 15 18 L 14 18 L 13 18 L 12 18 L 11 18 L 10 18 L 9 18 L 8 18 L 7 18 L 7 17 L 8 17 L 8 16 L 9 16 L 9 15 L 9 14 L 10 14 L 10 15 L 11 15 L 11 16 L 12 16 L 13 16 L 14 16 L 14 15 L 14 14 L 14 13 L 13 13 L 12 13 L 12 12 L 11 12 L 11 11 L 10 11 L 9 11 L 9 10 L 8 10 L 8 9 L 7 9 L 7 8 L 6 8 L 5 8 L 5 9 L 4 9 L 4 10 L 5 10 L 5 11 L 6 11 L 6 12 L 7 12 L 7 13 L 8 13 L 8 14 L 7 14 L 6 14 L 5 14 L 5 15 L 4 15 L 4 16 L 3 16 L 3 15 L 3 14 L 2 14 L 2 13 L 2 12 L 2 11 L 2 10 L 3 10 L 3 9 L 4 9 L 4 8 L 5 8 L 5 7 L 6 7 L 7 7 L 7 6 L 8 6 L 9 6 L 10 6 L 11 6 L 12 6 L 13 6 L 14 6 L 15 6 L 15 7 L 14 7 L 14 8 L 13 8 L 13 9 L 12 9 L 12 10 L 11 10 L 11 11 L 12 11 L 12 12 L 13 12 L 14 12 L 14 11 L 15 11 L 15 10 L 16 10 L 16 9 L 17 9 L 17 8 L 18 8 L 18 7 L 18 6 L 19 6 L 19 5 L 19 4 L 18 4 L 17 4 L 16 4 L 15 4 L 14 4 L 13 4 L 12 4 L 11 4 L 10 4 L 9 4 L 8 4 L 7 4 L 6 4 L 5 4 L 5 5 L 4 5 L 3 5 L 3 4 L 2 4 L 1 4 L 0 4 z M 157 6 L 158 6 L 158 7 L 159 7 L 160 7 L 160 6 L 160 5 L 160 4 L 159 4 L 158 4 L 158 5 L 157 5 L 157 6 z M 113 17 L 113 16 L 114 16 L 114 15 L 113 15 L 113 14 L 112 14 L 112 13 L 111 13 L 110 13 L 110 14 L 109 14 L 109 15 L 109 16 L 110 16 L 111 16 L 111 17 L 112 17 L 113 17 z M 51 6 L 52 6 L 53 6 L 54 6 L 55 6 L 55 7 L 54 7 L 54 8 L 53 8 L 52 8 L 52 9 L 51 9 L 51 10 L 50 10 L 49 10 L 49 9 L 48 9 L 48 8 L 47 8 L 47 7 L 48 7 L 49 7 L 50 7 L 51 7 L 51 6 z M 62 6 L 63 6 L 64 6 L 65 6 L 66 6 L 67 6 L 68 6 L 69 6 L 70 6 L 70 7 L 71 7 L 71 8 L 70 8 L 70 9 L 69 9 L 68 9 L 68 10 L 67 10 L 67 9 L 66 9 L 65 9 L 65 8 L 64 8 L 64 7 L 63 7 L 62 7 L 62 6 z M 87 6 L 88 6 L 89 6 L 90 6 L 91 6 L 92 6 L 93 6 L 94 6 L 95 6 L 95 7 L 94 7 L 94 8 L 93 8 L 93 9 L 92 9 L 92 10 L 91 10 L 91 11 L 92 11 L 92 12 L 91 12 L 91 11 L 90 11 L 90 10 L 89 10 L 89 9 L 88 9 L 88 8 L 87 8 L 86 8 L 86 7 L 87 7 L 87 6 z M 132 6 L 133 6 L 134 6 L 135 6 L 136 6 L 136 7 L 135 7 L 135 8 L 134 8 L 133 8 L 133 9 L 132 9 L 132 10 L 131 10 L 130 10 L 130 11 L 129 11 L 129 10 L 130 10 L 130 9 L 129 9 L 129 8 L 128 8 L 128 7 L 129 7 L 130 7 L 131 7 L 132 7 L 132 6 z M 143 6 L 144 6 L 145 6 L 146 6 L 147 6 L 148 6 L 149 6 L 150 6 L 151 6 L 151 7 L 152 7 L 152 8 L 151 8 L 150 8 L 150 9 L 149 9 L 149 10 L 148 10 L 147 10 L 147 9 L 146 9 L 146 8 L 145 8 L 144 8 L 144 7 L 143 7 L 143 6 z M 37 7 L 38 7 L 39 7 L 40 7 L 41 7 L 42 7 L 42 8 L 43 8 L 43 9 L 44 9 L 45 9 L 45 10 L 46 10 L 46 11 L 47 11 L 48 11 L 49 11 L 49 12 L 48 12 L 48 13 L 47 13 L 46 13 L 46 14 L 45 14 L 44 14 L 44 15 L 44 16 L 45 16 L 45 17 L 44 17 L 44 16 L 43 16 L 43 15 L 43 14 L 42 14 L 42 13 L 42 12 L 43 12 L 43 11 L 43 10 L 43 9 L 42 9 L 42 8 L 41 8 L 41 9 L 41 10 L 40 10 L 40 11 L 40 12 L 40 13 L 40 14 L 40 15 L 40 16 L 41 16 L 41 17 L 42 17 L 42 18 L 41 18 L 40 18 L 39 18 L 38 18 L 38 17 L 38 16 L 38 15 L 39 15 L 39 14 L 39 13 L 39 12 L 39 11 L 39 10 L 38 10 L 38 9 L 38 8 L 37 8 L 37 9 L 36 9 L 35 9 L 35 10 L 35 11 L 36 11 L 36 12 L 36 13 L 36 14 L 36 15 L 35 15 L 35 16 L 34 16 L 34 17 L 33 17 L 33 16 L 33 15 L 32 15 L 32 14 L 31 14 L 31 13 L 30 13 L 30 12 L 31 12 L 31 11 L 32 11 L 32 10 L 33 10 L 34 10 L 34 9 L 35 9 L 35 8 L 36 8 L 37 8 L 37 7 z M 72 7 L 73 7 L 73 8 L 72 8 L 72 7 z M 74 8 L 75 8 L 75 9 L 75 10 L 76 10 L 76 11 L 76 12 L 76 13 L 76 14 L 75 14 L 75 15 L 76 15 L 76 16 L 77 16 L 78 16 L 78 15 L 79 15 L 79 14 L 79 13 L 80 13 L 80 14 L 80 15 L 81 15 L 81 16 L 82 16 L 83 16 L 83 17 L 82 17 L 81 17 L 81 18 L 80 18 L 79 18 L 78 18 L 78 17 L 77 17 L 76 17 L 76 16 L 75 16 L 74 16 L 74 15 L 73 15 L 73 14 L 72 14 L 72 13 L 71 13 L 70 13 L 70 12 L 71 12 L 71 11 L 72 11 L 72 10 L 73 10 L 73 9 L 74 9 L 74 8 z M 84 8 L 85 8 L 85 9 L 85 10 L 85 11 L 86 11 L 86 12 L 87 12 L 87 13 L 88 13 L 88 14 L 87 14 L 86 14 L 86 15 L 85 15 L 85 16 L 84 16 L 84 15 L 84 14 L 83 14 L 83 13 L 83 12 L 83 11 L 83 10 L 83 9 L 84 9 L 84 8 z M 123 8 L 124 8 L 124 9 L 125 9 L 125 10 L 126 10 L 127 10 L 127 11 L 128 11 L 128 12 L 127 12 L 127 13 L 126 13 L 126 14 L 125 14 L 125 15 L 125 16 L 126 16 L 126 17 L 127 17 L 128 17 L 128 16 L 129 16 L 129 15 L 130 15 L 130 14 L 131 14 L 131 13 L 132 13 L 132 12 L 133 12 L 133 13 L 132 13 L 132 14 L 132 15 L 133 15 L 133 16 L 134 16 L 134 17 L 135 17 L 135 18 L 136 18 L 136 19 L 135 19 L 134 19 L 133 19 L 132 19 L 131 19 L 130 19 L 129 19 L 129 18 L 128 18 L 127 18 L 126 18 L 126 17 L 125 17 L 125 16 L 124 16 L 124 15 L 123 15 L 123 14 L 123 13 L 123 12 L 123 11 L 124 11 L 124 10 L 124 9 L 123 9 L 123 8 z M 154 8 L 155 8 L 155 9 L 156 9 L 156 10 L 156 11 L 157 11 L 157 12 L 157 13 L 157 14 L 156 14 L 156 15 L 156 16 L 155 16 L 155 15 L 154 15 L 154 14 L 153 14 L 152 14 L 152 13 L 151 13 L 151 12 L 151 11 L 152 11 L 153 11 L 153 10 L 154 10 L 154 9 L 154 8 z M 52 12 L 53 12 L 53 13 L 52 13 L 52 12 z M 146 12 L 147 12 L 147 13 L 148 13 L 148 14 L 149 14 L 149 15 L 150 15 L 150 16 L 151 16 L 152 16 L 152 17 L 153 17 L 153 18 L 152 18 L 151 18 L 150 18 L 150 19 L 149 19 L 148 19 L 147 19 L 146 19 L 145 19 L 144 19 L 144 18 L 145 18 L 145 17 L 145 16 L 146 16 L 146 15 L 147 15 L 147 14 L 147 13 L 146 13 L 146 12 z M 28 13 L 29 13 L 29 14 L 28 14 L 28 15 L 28 16 L 29 16 L 30 16 L 30 17 L 31 17 L 32 17 L 32 18 L 31 18 L 30 18 L 29 18 L 28 18 L 27 18 L 27 19 L 26 19 L 25 19 L 24 19 L 24 18 L 23 18 L 23 17 L 24 17 L 24 16 L 25 16 L 26 16 L 26 15 L 27 15 L 27 14 L 28 14 L 28 13 z M 119 13 L 120 13 L 120 14 L 121 14 L 121 15 L 121 16 L 121 17 L 122 17 L 122 18 L 121 18 L 120 18 L 119 18 L 118 18 L 118 17 L 118 16 L 119 16 L 119 15 L 119 14 L 119 13 z M 49 14 L 50 14 L 51 14 L 51 15 L 52 15 L 52 16 L 53 16 L 54 16 L 54 17 L 55 17 L 55 18 L 55 19 L 54 19 L 53 19 L 52 19 L 51 19 L 50 19 L 49 19 L 48 19 L 48 18 L 47 18 L 46 18 L 46 17 L 47 17 L 47 16 L 48 16 L 48 15 L 49 15 L 49 14 z M 90 15 L 91 15 L 92 15 L 92 16 L 93 16 L 93 17 L 94 17 L 95 17 L 95 18 L 94 18 L 93 18 L 92 18 L 91 18 L 90 18 L 89 18 L 88 18 L 88 17 L 88 16 L 89 16 L 90 16 L 90 15 z M 16 17 L 17 17 L 17 18 L 16 18 L 16 17 z M 21 18 L 22 18 L 22 19 L 21 19 L 21 18 z M 0 22 L 0 23 L 0 24 L 1 24 L 2 24 L 3 24 L 4 24 L 5 24 L 6 24 L 7 24 L 8 24 L 9 24 L 10 24 L 11 24 L 12 24 L 13 24 L 14 24 L 15 24 L 16 24 L 17 24 L 18 24 L 19 24 L 20 24 L 21 24 L 22 24 L 23 24 L 24 24 L 25 24 L 26 24 L 27 24 L 28 24 L 29 24 L 30 24 L 31 24 L 32 24 L 33 24 L 34 24 L 35 24 L 36 24 L 37 24 L 38 24 L 39 24 L 40 24 L 41 24 L 42 24 L 43 24 L 44 24 L 45 24 L 46 24 L 47 24 L 48 24 L 49 24 L 50 24 L 51 24 L 52 24 L 53 24 L 54 24 L 55 24 L 56 24 L 57 24 L 58 24 L 59 24 L 60 24 L 61 24 L 62 24 L 63 24 L 63 23 L 63 22 L 62 22 L 61 22 L 60 22 L 59 22 L 58 22 L 57 22 L 56 22 L 55 22 L 54 22 L 53 22 L 52 22 L 51 22 L 50 22 L 49 22 L 48 22 L 47 22 L 46 22 L 45 22 L 44 22 L 43 22 L 42 22 L 41 22 L 40 22 L 39 22 L 38 22 L 37 22 L 36 22 L 35 22 L 34 22 L 33 22 L 32 22 L 31 22 L 30 22 L 29 22 L 28 22 L 27 22 L 26 22 L 25 22 L 24 22 L 23 22 L 22 22 L 21 22 L 20 22 L 19 22 L 18 22 L 17 22 L 16 22 L 15 22 L 14 22 L 13 22 L 12 22 L 11 22 L 10 22 L 9 22 L 8 22 L 7 22 L 6 22 L 5 22 L 4 22 L 3 22 L 2 22 L 1 22 L 0 22 z M 65 22 L 65 23 L 64 23 L 64 24 L 65 24 L 66 24 L 67 24 L 68 24 L 69 24 L 70 24 L 71 24 L 72 24 L 73 24 L 74 24 L 75 24 L 76 24 L 77 24 L 78 24 L 79 24 L 80 24 L 81 24 L 82 24 L 83 24 L 84 24 L 85 24 L 86 24 L 87 24 L 88 24 L 89 24 L 90 24 L 91 24 L 92 24 L 93 24 L 94 24 L 95 24 L 96 24 L 97 24 L 98 24 L 99 24 L 100 24 L 101 24 L 102 24 L 103 24 L 104 24 L 105 24 L 106 24 L 107 24 L 108 24 L 109 24 L 110 24 L 111 24 L 112 24 L 113 24 L 114 24 L 115 24 L 116 24 L 117 24 L 118 24 L 119 24 L 120 24 L 121 24 L 122 24 L 123 24 L 124 24 L 125 24 L 126 24 L 127 24 L 128 24 L 129 24 L 130 24 L 131 24 L 132 24 L 133 24 L 134 24 L 135 24 L 136 24 L 137 24 L 138 24 L 139 24 L 140 24 L 141 24 L 142 24 L 143 24 L 144 24 L 145 24 L 146 24 L 147 24 L 148 24 L 149 24 L 150 24 L 151 24 L 152 24 L 153 24 L 154 24 L 155 24 L 156 24 L 157 24 L 158 24 L 159 24 L 160 24 L 160 23 L 160 22 L 159 22 L 158 22 L 157 22 L 156 22 L 155 22 L 154 22 L 153 22 L 152 22 L 151 22 L 150 22 L 149 22 L 148 22 L 147 22 L 146 22 L 145 22 L 144 22 L 143 22 L 142 22 L 141 22 L 140 22 L 139 22 L 138 22 L 137 22 L 136 22 L 135 22 L 134 22 L 133 22 L 132 22 L 131 22 L 130 22 L 129 22 L 128 22 L 127 22 L 126 22 L 125 22 L 124 22 L 123 22 L 122 22 L 121 22 L 120 22 L 119 22 L 118 22 L 117 22 L 116 22 L 115 22 L 114 22 L 113 22 L 112 22 L 111 22 L 110 22 L 109 22 L 108 22 L 107 22 L 106 22 L 105 22 L 104 22 L 103 22 L 102 22 L 101 22 L 100 22 L 99 22 L 98 22 L 97 22 L 96 22 L 95 22 L 94 22 L 93 22 L 92 22 L 91 22 L 90 22 L 89 22 L 88 22 L 87 22 L 86 22 L 85 22 L 84 22 L 83 22 L 82 22 L 81 22 L 80 22 L 79 22 L 78 22 L 77 22 L 76 22 L 75 22 L 74 22 L 73 22 L 72 22 L 71 22 L 70 22 L 69 22 L 68 22 L 67 22 L 66 22 L 65 22 z " />
</svg>
