<?xml version="1.0" encoding="UTF-8" standalone="no"?>
<svg
   version="1.1"
   width="256"
   height="32"
   shape-rendering="crispEdges"
   id="svg4888"
   sodipodi:docname="futhark ornament2.svg"
   inkscape:version="1.1.2 (b8e25be833, 2022-02-05)"
   xmlns:inkscape="http://www.inkscape.org/namespaces/inkscape"
   xmlns:sodipodi="http://sodipodi.sourceforge.net/DTD/sodipodi-0.dtd"
   xmlns="http://www.w3.org/2000/svg"
   xmlns:svg="http://www.w3.org/2000/svg">
  <defs
     id="defs4892" />
  <sodipodi:namedview
     id="namedview4890"
     pagecolor="#505050"
     bordercolor="#eeeeee"
     borderopacity="1"
     inkscape:pageshadow="0"
     inkscape:pageopacity="0"
     inkscape:pagecheckerboard="0"
     showgrid="false"
     inkscape:zoom="4.1328125"
     inkscape:cx="127.87902"
     inkscape:cy="15.969754"
     inkscape:window-width="1920"
     inkscape:window-height="1017"
     inkscape:window-x="-8"
     inkscape:window-y="-8"
     inkscape:window-maximized="1"
     inkscape:current-layer="svg4888" />
  <path
     id="rect2"
     d="M 0 1 L 0 2 L 1 2 L 2 2 L 3 2 L 4 2 L 4 3 L 3 3 L 3 4 L 4 4 L 4 5 L 5 5 L 5 6 L 6 6 L 6 7 L 7 7 L 7 8 L 8 8 L 8 9 L 9 9 L 9 10 L 10 10 L 10 11 L 11 11 L 11 12 L 11 13 L 11 14 L 11 15 L 11 16 L 11 17 L 11 18 L 11 19 L 11 20 L 11 21 L 11 22 L 11 23 L 11 24 L 11 25 L 11 26 L 11 27 L 11 28 L 11 29 L 10 29 L 9 29 L 8 29 L 7 29 L 6 29 L 5 29 L 4 29 L 3 29 L 2 29 L 1 29 L 0 29 L 0 30 L 1 30 L 2 30 L 3 30 L 4 30 L 5 30 L 6 30 L 7 30 L 8 30 L 9 30 L 10 30 L 11 30 L 12 30 L 13 30 L 14 30 L 15 30 L 16 30 L 17 30 L 18 30 L 19 30 L 20 30 L 21 30 L 22 30 L 23 30 L 24 30 L 25 30 L 26 30 L 27 30 L 28 30 L 29 30 L 30 30 L 31 30 L 32 30 L 33 30 L 34 30 L 35 30 L 36 30 L 37 30 L 38 30 L 39 30 L 40 30 L 41 30 L 42 30 L 43 30 L 44 30 L 45 30 L 46 30 L 47 30 L 48 30 L 49 30 L 50 30 L 51 30 L 52 30 L 53 30 L 54 30 L 55 30 L 56 30 L 57 30 L 58 30 L 59 30 L 60 30 L 61 30 L 62 30 L 63 30 L 64 30 L 65 30 L 66 30 L 67 30 L 68 30 L 69 30 L 70 30 L 71 30 L 72 30 L 73 30 L 74 30 L 75 30 L 76 30 L 77 30 L 78 30 L 79 30 L 80 30 L 81 30 L 82 30 L 83 30 L 84 30 L 85 30 L 86 30 L 87 30 L 88 30 L 89 30 L 90 30 L 91 30 L 92 30 L 93 30 L 94 30 L 95 30 L 96 30 L 97 30 L 98 30 L 99 30 L 100 30 L 101 30 L 102 30 L 103 30 L 104 30 L 105 30 L 106 30 L 107 30 L 108 30 L 109 30 L 110 30 L 111 30 L 112 30 L 113 30 L 114 30 L 115 30 L 116 30 L 117 30 L 118 30 L 119 30 L 120 30 L 121 30 L 122 30 L 123 30 L 124 30 L 125 30 L 126 30 L 127 30 L 128 30 L 129 30 L 130 30 L 131 30 L 132 30 L 133 30 L 134 30 L 135 30 L 136 30 L 137 30 L 138 30 L 139 30 L 140 30 L 141 30 L 142 30 L 143 30 L 144 30 L 145 30 L 146 30 L 147 30 L 148 30 L 149 30 L 150 30 L 151 30 L 152 30 L 153 30 L 154 30 L 155 30 L 156 30 L 157 30 L 158 30 L 159 30 L 160 30 L 161 30 L 162 30 L 163 30 L 164 30 L 165 30 L 166 30 L 167 30 L 168 30 L 169 30 L 170 30 L 171 30 L 172 30 L 173 30 L 174 30 L 175 30 L 176 30 L 177 30 L 178 30 L 179 30 L 180 30 L 181 30 L 182 30 L 183 30 L 184 30 L 185 30 L 186 30 L 187 30 L 188 30 L 189 30 L 190 30 L 191 30 L 192 30 L 193 30 L 194 30 L 195 30 L 196 30 L 197 30 L 198 30 L 199 30 L 200 30 L 201 30 L 202 30 L 203 30 L 204 30 L 205 30 L 206 30 L 207 30 L 208 30 L 209 30 L 210 30 L 211 30 L 212 30 L 213 30 L 214 30 L 215 30 L 216 30 L 217 30 L 218 30 L 219 30 L 220 30 L 221 30 L 222 30 L 223 30 L 224 30 L 225 30 L 226 30 L 227 30 L 228 30 L 229 30 L 230 30 L 231 30 L 232 30 L 233 30 L 234 30 L 235 30 L 236 30 L 237 30 L 238 30 L 239 30 L 240 30 L 241 30 L 242 30 L 243 30 L 244 30 L 245 30 L 246 30 L 247 30 L 248 30 L 249 30 L 250 30 L 251 30 L 252 30 L 253 30 L 254 30 L 255 30 L 256 30 L 256 29 L 255 29 L 254 29 L 254 28 L 254 27 L 253 27 L 253 26 L 252 26 L 252 25 L 251 25 L 251 24 L 250 24 L 250 23 L 249 23 L 249 22 L 248 22 L 248 21 L 249 21 L 249 20 L 250 20 L 250 19 L 251 19 L 251 18 L 252 18 L 252 17 L 253 17 L 253 16 L 254 16 L 254 15 L 253 15 L 253 14 L 252 14 L 252 13 L 251 13 L 251 12 L 250 12 L 250 11 L 249 11 L 249 10 L 248 10 L 248 9 L 249 9 L 249 8 L 250 8 L 250 7 L 251 7 L 251 6 L 252 6 L 252 5 L 253 5 L 253 4 L 254 4 L 254 3 L 254 2 L 255 2 L 256 2 L 256 1 L 255 1 L 254 1 L 253 1 L 252 1 L 251 1 L 250 1 L 249 1 L 248 1 L 247 1 L 246 1 L 245 1 L 244 1 L 243 1 L 242 1 L 241 1 L 240 1 L 239 1 L 238 1 L 237 1 L 236 1 L 235 1 L 234 1 L 233 1 L 232 1 L 231 1 L 230 1 L 229 1 L 228 1 L 227 1 L 226 1 L 225 1 L 224 1 L 223 1 L 222 1 L 221 1 L 220 1 L 219 1 L 218 1 L 217 1 L 216 1 L 215 1 L 214 1 L 213 1 L 212 1 L 211 1 L 210 1 L 209 1 L 208 1 L 207 1 L 206 1 L 205 1 L 204 1 L 203 1 L 202 1 L 201 1 L 200 1 L 199 1 L 198 1 L 197 1 L 196 1 L 195 1 L 194 1 L 193 1 L 192 1 L 191 1 L 190 1 L 189 1 L 188 1 L 187 1 L 186 1 L 185 1 L 184 1 L 183 1 L 182 1 L 181 1 L 180 1 L 179 1 L 178 1 L 177 1 L 176 1 L 175 1 L 174 1 L 173 1 L 172 1 L 171 1 L 170 1 L 169 1 L 168 1 L 167 1 L 166 1 L 165 1 L 164 1 L 163 1 L 162 1 L 161 1 L 160 1 L 159 1 L 158 1 L 157 1 L 156 1 L 155 1 L 154 1 L 153 1 L 152 1 L 151 1 L 150 1 L 149 1 L 148 1 L 147 1 L 146 1 L 145 1 L 144 1 L 143 1 L 142 1 L 141 1 L 140 1 L 139 1 L 138 1 L 137 1 L 136 1 L 135 1 L 134 1 L 133 1 L 132 1 L 131 1 L 130 1 L 129 1 L 128 1 L 127 1 L 126 1 L 125 1 L 124 1 L 123 1 L 122 1 L 121 1 L 120 1 L 119 1 L 118 1 L 117 1 L 116 1 L 115 1 L 114 1 L 113 1 L 112 1 L 111 1 L 110 1 L 109 1 L 108 1 L 107 1 L 106 1 L 105 1 L 104 1 L 103 1 L 102 1 L 101 1 L 100 1 L 99 1 L 98 1 L 97 1 L 96 1 L 95 1 L 94 1 L 93 1 L 92 1 L 91 1 L 90 1 L 89 1 L 88 1 L 87 1 L 86 1 L 85 1 L 84 1 L 83 1 L 82 1 L 81 1 L 80 1 L 79 1 L 78 1 L 77 1 L 76 1 L 75 1 L 74 1 L 73 1 L 72 1 L 71 1 L 70 1 L 69 1 L 68 1 L 67 1 L 66 1 L 65 1 L 64 1 L 63 1 L 62 1 L 61 1 L 60 1 L 59 1 L 58 1 L 57 1 L 56 1 L 55 1 L 54 1 L 53 1 L 52 1 L 51 1 L 50 1 L 49 1 L 48 1 L 47 1 L 46 1 L 45 1 L 44 1 L 43 1 L 42 1 L 41 1 L 40 1 L 39 1 L 38 1 L 37 1 L 36 1 L 35 1 L 34 1 L 33 1 L 32 1 L 31 1 L 30 1 L 29 1 L 28 1 L 27 1 L 26 1 L 25 1 L 24 1 L 23 1 L 22 1 L 21 1 L 20 1 L 19 1 L 18 1 L 17 1 L 16 1 L 15 1 L 14 1 L 13 1 L 12 1 L 11 1 L 10 1 L 9 1 L 8 1 L 7 1 L 6 1 L 5 1 L 4 1 L 3 1 L 2 1 L 1 1 L 0 1 z M 6 2 L 7 2 L 8 2 L 9 2 L 10 2 L 11 2 L 11 3 L 11 4 L 11 5 L 11 6 L 11 7 L 11 8 L 10 8 L 10 7 L 9 7 L 9 6 L 8 6 L 8 5 L 7 5 L 7 4 L 6 4 L 6 3 L 6 2 z M 13 2 L 14 2 L 15 2 L 16 2 L 17 2 L 18 2 L 18 3 L 18 4 L 17 4 L 17 5 L 16 5 L 16 6 L 15 6 L 15 7 L 14 7 L 14 8 L 13 8 L 13 7 L 13 6 L 13 5 L 13 4 L 13 3 L 13 2 z M 20 2 L 21 2 L 22 2 L 23 2 L 24 2 L 25 2 L 25 3 L 25 4 L 25 5 L 25 6 L 25 7 L 25 8 L 25 9 L 25 10 L 25 11 L 25 12 L 25 13 L 25 14 L 25 15 L 25 16 L 25 17 L 25 18 L 25 19 L 25 20 L 25 21 L 25 22 L 25 23 L 25 24 L 25 25 L 25 26 L 25 27 L 25 28 L 25 29 L 24 29 L 23 29 L 22 29 L 21 29 L 20 29 L 19 29 L 18 29 L 17 29 L 16 29 L 15 29 L 14 29 L 13 29 L 13 28 L 13 27 L 13 26 L 13 25 L 13 24 L 13 23 L 13 22 L 13 21 L 13 20 L 13 19 L 13 18 L 13 17 L 13 16 L 13 15 L 13 14 L 13 13 L 13 12 L 13 11 L 14 11 L 14 10 L 15 10 L 15 9 L 16 9 L 16 8 L 17 8 L 17 7 L 18 7 L 18 6 L 19 6 L 19 5 L 20 5 L 20 4 L 21 4 L 21 3 L 20 3 L 20 2 z M 27 2 L 28 2 L 29 2 L 30 2 L 31 2 L 32 2 L 33 2 L 34 2 L 35 2 L 36 2 L 36 3 L 36 4 L 36 5 L 36 6 L 36 7 L 36 8 L 36 9 L 36 10 L 36 11 L 36 12 L 36 13 L 36 14 L 36 15 L 36 16 L 36 17 L 36 18 L 36 19 L 36 20 L 36 21 L 36 22 L 36 23 L 36 24 L 36 25 L 36 26 L 36 27 L 36 28 L 36 29 L 35 29 L 34 29 L 33 29 L 32 29 L 31 29 L 30 29 L 29 29 L 28 29 L 27 29 L 27 28 L 27 27 L 27 26 L 27 25 L 27 24 L 27 23 L 27 22 L 27 21 L 27 20 L 27 19 L 27 18 L 27 17 L 27 16 L 27 15 L 28 15 L 28 16 L 29 16 L 29 17 L 30 17 L 30 18 L 31 18 L 31 19 L 32 19 L 33 19 L 33 18 L 33 17 L 32 17 L 32 16 L 31 16 L 31 15 L 30 15 L 30 14 L 29 14 L 29 13 L 28 13 L 28 12 L 27 12 L 27 11 L 27 10 L 27 9 L 27 8 L 27 7 L 27 6 L 28 6 L 28 7 L 29 7 L 29 8 L 30 8 L 30 9 L 31 9 L 31 10 L 32 10 L 33 10 L 33 9 L 33 8 L 32 8 L 32 7 L 31 7 L 31 6 L 30 6 L 30 5 L 29 5 L 29 4 L 28 4 L 28 3 L 27 3 L 27 2 z M 38 2 L 39 2 L 40 2 L 41 2 L 42 2 L 43 2 L 44 2 L 45 2 L 46 2 L 47 2 L 48 2 L 49 2 L 50 2 L 50 3 L 50 4 L 50 5 L 50 6 L 50 7 L 50 8 L 50 9 L 50 10 L 50 11 L 50 12 L 50 13 L 50 14 L 50 15 L 50 16 L 50 17 L 50 18 L 50 19 L 50 20 L 50 21 L 50 22 L 50 23 L 50 24 L 50 25 L 50 26 L 50 27 L 50 28 L 50 29 L 49 29 L 48 29 L 47 29 L 46 29 L 45 29 L 44 29 L 43 29 L 42 29 L 41 29 L 40 29 L 40 28 L 41 28 L 41 27 L 42 27 L 43 27 L 43 26 L 44 26 L 44 25 L 45 25 L 46 25 L 46 24 L 47 24 L 47 23 L 47 22 L 47 21 L 46 21 L 46 20 L 45 20 L 44 20 L 44 19 L 43 19 L 43 18 L 42 18 L 41 18 L 41 17 L 40 17 L 40 16 L 40 15 L 41 15 L 41 14 L 42 14 L 43 14 L 43 13 L 44 13 L 44 12 L 45 12 L 46 12 L 46 11 L 47 11 L 47 10 L 47 9 L 47 8 L 46 8 L 46 7 L 45 7 L 44 7 L 44 6 L 43 6 L 43 5 L 42 5 L 41 5 L 41 4 L 40 4 L 40 3 L 39 3 L 38 3 L 38 2 z M 51 2 L 52 2 L 53 2 L 54 2 L 55 2 L 56 2 L 57 2 L 58 2 L 59 2 L 60 2 L 61 2 L 62 2 L 63 2 L 64 2 L 65 2 L 66 2 L 67 2 L 67 3 L 66 3 L 66 4 L 65 4 L 65 5 L 64 5 L 64 6 L 64 7 L 63 7 L 63 8 L 62 8 L 62 9 L 62 10 L 61 10 L 61 11 L 61 12 L 60 12 L 60 13 L 59 13 L 59 14 L 58 14 L 58 13 L 58 12 L 57 12 L 57 11 L 57 10 L 56 10 L 56 9 L 55 9 L 55 8 L 55 7 L 54 7 L 54 6 L 54 5 L 53 5 L 53 4 L 52 4 L 52 3 L 51 3 L 51 2 z M 68 2 L 69 2 L 70 2 L 71 2 L 71 3 L 71 4 L 71 5 L 71 6 L 71 7 L 71 8 L 71 9 L 71 10 L 71 11 L 71 12 L 71 13 L 71 14 L 71 15 L 71 16 L 71 17 L 71 18 L 71 19 L 71 20 L 71 21 L 71 22 L 71 23 L 71 24 L 71 25 L 71 26 L 71 27 L 71 28 L 71 29 L 70 29 L 69 29 L 68 29 L 68 28 L 68 27 L 68 26 L 68 25 L 68 24 L 68 23 L 68 22 L 68 21 L 68 20 L 68 19 L 68 18 L 68 17 L 68 16 L 68 15 L 68 14 L 68 13 L 68 12 L 68 11 L 68 10 L 68 9 L 68 8 L 68 7 L 68 6 L 68 5 L 68 4 L 68 3 L 68 2 z M 73 2 L 74 2 L 75 2 L 76 2 L 77 2 L 78 2 L 79 2 L 80 2 L 81 2 L 82 2 L 83 2 L 84 2 L 85 2 L 86 2 L 86 3 L 85 3 L 85 4 L 84 4 L 84 5 L 83 5 L 83 6 L 82 6 L 82 7 L 81 7 L 81 8 L 80 8 L 80 9 L 79 9 L 79 8 L 78 8 L 78 7 L 77 7 L 77 6 L 76 6 L 76 5 L 75 5 L 75 4 L 74 4 L 74 3 L 73 3 L 73 2 z M 88 2 L 89 2 L 90 2 L 91 2 L 91 3 L 91 4 L 91 5 L 91 6 L 91 7 L 91 8 L 91 9 L 91 10 L 91 11 L 91 12 L 91 13 L 91 14 L 91 15 L 91 16 L 91 17 L 91 18 L 91 19 L 91 20 L 91 21 L 91 22 L 91 23 L 91 24 L 91 25 L 91 26 L 91 27 L 91 28 L 91 29 L 90 29 L 89 29 L 88 29 L 88 28 L 88 27 L 88 26 L 88 25 L 88 24 L 88 23 L 88 22 L 88 21 L 88 20 L 88 19 L 88 18 L 88 17 L 88 16 L 88 15 L 88 14 L 88 13 L 88 12 L 88 11 L 88 10 L 88 9 L 88 8 L 88 7 L 88 6 L 88 5 L 88 4 L 88 3 L 88 2 z M 93 2 L 94 2 L 95 2 L 96 2 L 97 2 L 98 2 L 99 2 L 100 2 L 101 2 L 102 2 L 103 2 L 104 2 L 105 2 L 106 2 L 107 2 L 107 3 L 106 3 L 106 4 L 106 5 L 107 5 L 107 6 L 107 7 L 108 7 L 108 8 L 108 9 L 109 9 L 109 10 L 109 11 L 110 11 L 110 12 L 110 13 L 110 14 L 111 14 L 111 15 L 111 16 L 112 16 L 112 17 L 111 17 L 111 18 L 111 19 L 110 19 L 110 20 L 110 21 L 109 21 L 109 22 L 109 23 L 108 23 L 108 24 L 108 25 L 107 25 L 107 26 L 107 27 L 106 27 L 106 28 L 106 29 L 105 29 L 104 29 L 103 29 L 102 29 L 101 29 L 100 29 L 99 29 L 98 29 L 97 29 L 96 29 L 95 29 L 94 29 L 93 29 L 93 28 L 93 27 L 93 26 L 93 25 L 93 24 L 93 23 L 93 22 L 93 21 L 94 21 L 94 20 L 95 20 L 95 19 L 96 19 L 96 18 L 97 18 L 97 17 L 98 17 L 98 16 L 99 16 L 99 15 L 100 15 L 100 14 L 101 14 L 101 13 L 102 13 L 102 12 L 103 12 L 103 11 L 103 10 L 102 10 L 101 10 L 101 11 L 100 11 L 100 12 L 99 12 L 99 13 L 98 13 L 98 14 L 97 14 L 97 15 L 96 15 L 96 16 L 95 16 L 95 17 L 94 17 L 94 18 L 93 18 L 93 17 L 93 16 L 93 15 L 93 14 L 94 14 L 94 13 L 95 13 L 95 12 L 96 12 L 96 11 L 97 11 L 97 10 L 98 10 L 98 9 L 99 9 L 99 8 L 100 8 L 100 7 L 101 7 L 101 6 L 102 6 L 102 5 L 103 5 L 103 4 L 103 3 L 102 3 L 101 3 L 101 4 L 100 4 L 100 5 L 99 5 L 99 6 L 98 6 L 98 7 L 97 7 L 97 8 L 96 8 L 96 9 L 95 9 L 95 10 L 94 10 L 94 11 L 93 11 L 93 10 L 93 9 L 93 8 L 93 7 L 93 6 L 93 5 L 93 4 L 93 3 L 93 2 z M 109 2 L 110 2 L 111 2 L 112 2 L 113 2 L 114 2 L 115 2 L 116 2 L 117 2 L 117 3 L 117 4 L 117 5 L 117 6 L 116 6 L 116 7 L 116 8 L 115 8 L 115 9 L 115 10 L 114 10 L 114 11 L 114 12 L 114 13 L 113 13 L 113 12 L 112 12 L 112 11 L 112 10 L 111 10 L 111 9 L 111 8 L 110 8 L 110 7 L 110 6 L 109 6 L 109 5 L 109 4 L 109 3 L 109 2 z M 119 2 L 120 2 L 121 2 L 122 2 L 123 2 L 123 3 L 123 4 L 123 5 L 123 6 L 123 7 L 123 8 L 123 9 L 123 10 L 123 11 L 123 12 L 123 13 L 123 14 L 123 15 L 123 16 L 123 17 L 123 18 L 123 19 L 123 20 L 123 21 L 123 22 L 123 23 L 123 24 L 123 25 L 123 26 L 123 27 L 123 28 L 123 29 L 122 29 L 121 29 L 120 29 L 120 28 L 120 27 L 119 27 L 119 26 L 119 25 L 118 25 L 118 24 L 118 23 L 117 23 L 117 22 L 117 21 L 116 21 L 116 20 L 116 19 L 115 19 L 115 18 L 115 17 L 114 17 L 114 16 L 115 16 L 115 15 L 115 14 L 116 14 L 116 13 L 116 12 L 117 12 L 117 11 L 117 10 L 117 9 L 118 9 L 118 8 L 118 7 L 119 7 L 119 6 L 119 5 L 120 5 L 120 4 L 120 3 L 119 3 L 119 2 z M 125 2 L 126 2 L 127 2 L 128 2 L 129 2 L 130 2 L 131 2 L 132 2 L 133 2 L 134 2 L 135 2 L 136 2 L 137 2 L 137 3 L 137 4 L 137 5 L 137 6 L 137 7 L 137 8 L 137 9 L 137 10 L 137 11 L 137 12 L 137 13 L 137 14 L 137 15 L 137 16 L 137 17 L 136 17 L 136 16 L 135 16 L 135 15 L 134 15 L 134 14 L 133 14 L 133 13 L 132 13 L 132 12 L 131 12 L 131 11 L 130 11 L 130 10 L 129 10 L 129 9 L 128 9 L 128 8 L 127 8 L 127 7 L 126 7 L 126 6 L 125 6 L 125 5 L 125 4 L 125 3 L 125 2 z M 139 2 L 140 2 L 141 2 L 142 2 L 143 2 L 144 2 L 145 2 L 146 2 L 147 2 L 147 3 L 148 3 L 148 4 L 148 5 L 148 6 L 148 7 L 148 8 L 148 9 L 148 10 L 147 10 L 147 11 L 146 11 L 146 12 L 145 12 L 145 13 L 144 13 L 144 14 L 143 14 L 143 15 L 142 15 L 142 16 L 142 17 L 142 18 L 143 18 L 143 19 L 144 19 L 144 20 L 145 20 L 145 21 L 146 21 L 146 22 L 147 22 L 147 23 L 148 23 L 148 24 L 148 25 L 148 26 L 148 27 L 148 28 L 147 28 L 147 29 L 146 29 L 145 29 L 144 29 L 143 29 L 142 29 L 141 29 L 140 29 L 139 29 L 139 28 L 139 27 L 139 26 L 139 25 L 139 24 L 139 23 L 139 22 L 139 21 L 139 20 L 139 19 L 139 18 L 139 17 L 139 16 L 139 15 L 139 14 L 139 13 L 139 12 L 139 11 L 139 10 L 139 9 L 139 8 L 139 7 L 139 6 L 139 5 L 139 4 L 139 3 L 139 2 z M 151 2 L 152 2 L 153 2 L 154 2 L 155 2 L 156 2 L 157 2 L 158 2 L 159 2 L 159 3 L 159 4 L 159 5 L 159 6 L 159 7 L 159 8 L 159 9 L 159 10 L 159 11 L 159 12 L 159 13 L 159 14 L 159 15 L 159 16 L 159 17 L 159 18 L 159 19 L 159 20 L 159 21 L 159 22 L 159 23 L 159 24 L 159 25 L 159 26 L 159 27 L 159 28 L 159 29 L 158 29 L 157 29 L 156 29 L 155 29 L 154 29 L 153 29 L 152 29 L 151 29 L 151 28 L 150 28 L 150 27 L 150 26 L 150 25 L 150 24 L 150 23 L 151 23 L 151 22 L 152 22 L 152 21 L 153 21 L 153 20 L 154 20 L 154 19 L 155 19 L 155 18 L 156 18 L 156 17 L 156 16 L 156 15 L 155 15 L 155 14 L 154 14 L 154 13 L 153 13 L 153 12 L 152 12 L 152 11 L 151 11 L 151 10 L 150 10 L 150 9 L 150 8 L 150 7 L 150 6 L 150 5 L 150 4 L 150 3 L 151 3 L 151 2 z M 161 2 L 162 2 L 163 2 L 164 2 L 165 2 L 166 2 L 167 2 L 168 2 L 169 2 L 170 2 L 171 2 L 171 3 L 171 4 L 171 5 L 171 6 L 171 7 L 171 8 L 171 9 L 171 10 L 171 11 L 171 12 L 171 13 L 171 14 L 171 15 L 171 16 L 171 17 L 171 18 L 171 19 L 171 20 L 171 21 L 171 22 L 171 23 L 171 24 L 171 25 L 171 26 L 171 27 L 170 27 L 169 27 L 169 26 L 168 26 L 167 26 L 167 25 L 166 25 L 165 25 L 165 26 L 164 26 L 164 27 L 165 27 L 166 27 L 166 28 L 167 28 L 168 28 L 168 29 L 167 29 L 166 29 L 165 29 L 164 29 L 163 29 L 162 29 L 161 29 L 161 28 L 161 27 L 161 26 L 161 25 L 161 24 L 161 23 L 161 22 L 161 21 L 161 20 L 161 19 L 161 18 L 161 17 L 161 16 L 161 15 L 161 14 L 161 13 L 161 12 L 161 11 L 161 10 L 161 9 L 161 8 L 161 7 L 161 6 L 161 5 L 161 4 L 161 3 L 161 2 z M 174 2 L 175 2 L 176 2 L 177 2 L 178 2 L 179 2 L 180 2 L 181 2 L 182 2 L 183 2 L 183 3 L 183 4 L 183 5 L 183 6 L 183 7 L 183 8 L 183 9 L 183 10 L 183 11 L 183 12 L 183 13 L 183 14 L 183 15 L 183 16 L 183 17 L 183 18 L 183 19 L 183 20 L 183 21 L 183 22 L 183 23 L 183 24 L 183 25 L 183 26 L 183 27 L 183 28 L 183 29 L 182 29 L 181 29 L 180 29 L 179 29 L 178 29 L 177 29 L 176 29 L 175 29 L 174 29 L 173 29 L 173 28 L 173 27 L 173 26 L 173 25 L 173 24 L 173 23 L 173 22 L 173 21 L 173 20 L 173 19 L 173 18 L 173 17 L 173 16 L 173 15 L 173 14 L 173 13 L 173 12 L 173 11 L 173 10 L 173 9 L 173 8 L 173 7 L 173 6 L 173 5 L 174 5 L 175 5 L 175 6 L 176 6 L 177 6 L 177 7 L 178 7 L 179 7 L 179 6 L 180 6 L 180 5 L 179 5 L 178 5 L 178 4 L 177 4 L 176 4 L 176 3 L 175 3 L 174 3 L 174 2 z M 187 2 L 188 2 L 189 2 L 190 2 L 191 2 L 192 2 L 193 2 L 194 2 L 195 2 L 196 2 L 196 3 L 196 4 L 196 5 L 196 6 L 196 7 L 196 8 L 196 9 L 196 10 L 196 11 L 196 12 L 196 13 L 196 14 L 196 15 L 196 16 L 196 17 L 196 18 L 196 19 L 196 20 L 196 21 L 196 22 L 196 23 L 196 24 L 196 25 L 196 26 L 196 27 L 196 28 L 196 29 L 195 29 L 194 29 L 193 29 L 192 29 L 191 29 L 190 29 L 189 29 L 188 29 L 187 29 L 186 29 L 185 29 L 185 28 L 185 27 L 185 26 L 185 25 L 185 24 L 185 23 L 185 22 L 185 21 L 185 20 L 185 19 L 185 18 L 185 17 L 185 16 L 185 15 L 185 14 L 185 13 L 185 12 L 185 11 L 185 10 L 185 9 L 185 8 L 185 7 L 185 6 L 185 5 L 185 4 L 186 4 L 186 5 L 187 5 L 187 6 L 188 6 L 188 7 L 189 7 L 189 8 L 190 8 L 190 9 L 191 9 L 191 10 L 192 10 L 193 10 L 193 9 L 193 8 L 192 8 L 192 7 L 191 7 L 191 6 L 190 6 L 190 5 L 189 5 L 189 4 L 188 4 L 188 3 L 187 3 L 187 2 z M 199 2 L 200 2 L 201 2 L 202 2 L 203 2 L 204 2 L 205 2 L 206 2 L 207 2 L 208 2 L 209 2 L 210 2 L 211 2 L 211 3 L 210 3 L 210 4 L 209 4 L 208 4 L 208 5 L 207 5 L 206 5 L 206 6 L 205 6 L 204 6 L 204 5 L 203 5 L 202 5 L 202 4 L 201 4 L 201 3 L 200 3 L 199 3 L 199 2 z M 214 2 L 215 2 L 216 2 L 217 2 L 218 2 L 218 3 L 218 4 L 218 5 L 218 6 L 218 7 L 218 8 L 218 9 L 218 10 L 218 11 L 218 12 L 218 13 L 218 14 L 218 15 L 218 16 L 218 17 L 218 18 L 218 19 L 218 20 L 218 21 L 218 22 L 218 23 L 218 24 L 218 25 L 218 26 L 218 27 L 218 28 L 218 29 L 217 29 L 216 29 L 215 29 L 214 29 L 214 28 L 214 27 L 214 26 L 214 25 L 214 24 L 214 23 L 214 22 L 214 21 L 214 20 L 214 19 L 214 18 L 214 17 L 214 16 L 214 15 L 214 14 L 214 13 L 214 12 L 214 11 L 214 10 L 214 9 L 214 8 L 214 7 L 214 6 L 214 5 L 214 4 L 214 3 L 214 2 z M 221 2 L 222 2 L 223 2 L 224 2 L 225 2 L 226 2 L 227 2 L 228 2 L 229 2 L 230 2 L 231 2 L 232 2 L 232 3 L 232 4 L 232 5 L 232 6 L 232 7 L 232 8 L 232 9 L 232 10 L 232 11 L 232 12 L 232 13 L 232 14 L 232 15 L 232 16 L 232 17 L 232 18 L 232 19 L 232 20 L 232 21 L 232 22 L 232 23 L 232 24 L 232 25 L 232 26 L 232 27 L 232 28 L 232 29 L 231 29 L 230 29 L 229 29 L 229 28 L 229 27 L 229 26 L 228 26 L 228 25 L 228 24 L 227 24 L 227 23 L 227 22 L 226 22 L 226 21 L 226 20 L 226 19 L 225 19 L 225 18 L 225 17 L 226 17 L 226 16 L 226 15 L 226 14 L 227 14 L 227 13 L 227 12 L 228 12 L 228 11 L 228 10 L 228 9 L 228 8 L 227 8 L 227 7 L 226 7 L 226 6 L 225 6 L 224 6 L 224 5 L 223 5 L 223 4 L 222 4 L 222 3 L 221 3 L 221 2 z M 234 2 L 235 2 L 236 2 L 237 2 L 238 2 L 239 2 L 240 2 L 241 2 L 242 2 L 243 2 L 244 2 L 245 2 L 246 2 L 247 2 L 248 2 L 249 2 L 250 2 L 251 2 L 252 2 L 252 3 L 251 3 L 251 4 L 250 4 L 250 5 L 249 5 L 249 6 L 248 6 L 248 7 L 247 7 L 247 8 L 246 8 L 246 9 L 245 9 L 245 10 L 246 10 L 246 11 L 247 11 L 247 12 L 248 12 L 248 13 L 249 13 L 249 14 L 250 14 L 250 15 L 251 15 L 251 16 L 250 16 L 250 17 L 249 17 L 249 18 L 248 18 L 248 19 L 247 19 L 247 20 L 246 20 L 246 21 L 245 21 L 245 22 L 246 22 L 246 23 L 247 23 L 247 24 L 248 24 L 248 25 L 249 25 L 249 26 L 250 26 L 250 27 L 251 27 L 251 28 L 252 28 L 252 29 L 251 29 L 250 29 L 249 29 L 248 29 L 247 29 L 246 29 L 245 29 L 244 29 L 243 29 L 242 29 L 241 29 L 240 29 L 239 29 L 238 29 L 237 29 L 236 29 L 235 29 L 234 29 L 234 28 L 234 27 L 234 26 L 234 25 L 234 24 L 234 23 L 235 23 L 235 22 L 236 22 L 236 21 L 237 21 L 237 20 L 238 20 L 238 19 L 239 19 L 239 18 L 240 18 L 240 17 L 241 17 L 241 16 L 242 16 L 242 15 L 242 14 L 242 13 L 241 13 L 241 12 L 240 12 L 240 11 L 239 11 L 239 10 L 238 10 L 238 9 L 237 9 L 237 8 L 236 8 L 236 7 L 235 7 L 235 6 L 234 6 L 234 5 L 234 4 L 234 3 L 234 2 z M 38 5 L 39 5 L 39 6 L 40 6 L 40 7 L 41 7 L 42 7 L 42 8 L 43 8 L 43 9 L 44 9 L 44 10 L 43 10 L 43 11 L 42 11 L 41 11 L 41 12 L 40 12 L 40 13 L 39 13 L 38 13 L 38 12 L 38 11 L 38 10 L 38 9 L 38 8 L 38 7 L 38 6 L 38 5 z M 198 5 L 199 5 L 199 6 L 200 6 L 201 6 L 201 7 L 202 7 L 202 8 L 201 8 L 201 9 L 200 9 L 199 9 L 199 10 L 198 10 L 198 9 L 198 8 L 198 7 L 198 6 L 198 5 z M 211 5 L 212 5 L 212 6 L 212 7 L 212 8 L 212 9 L 212 10 L 211 10 L 211 9 L 210 9 L 209 9 L 209 8 L 208 8 L 208 7 L 209 7 L 209 6 L 210 6 L 211 6 L 211 5 z M 220 5 L 221 5 L 221 6 L 222 6 L 222 7 L 223 7 L 223 8 L 224 8 L 224 9 L 225 9 L 226 9 L 226 10 L 226 11 L 225 11 L 225 12 L 225 13 L 224 13 L 224 14 L 224 15 L 224 16 L 223 16 L 223 17 L 223 18 L 223 19 L 223 20 L 224 20 L 224 21 L 224 22 L 224 23 L 225 23 L 225 24 L 225 25 L 225 26 L 226 26 L 226 27 L 226 28 L 227 28 L 227 29 L 226 29 L 225 29 L 224 29 L 223 29 L 222 29 L 221 29 L 220 29 L 220 28 L 220 27 L 220 26 L 220 25 L 220 24 L 220 23 L 220 22 L 220 21 L 220 20 L 220 19 L 220 18 L 220 17 L 220 16 L 220 15 L 220 14 L 220 13 L 220 12 L 220 11 L 220 10 L 220 9 L 220 8 L 220 7 L 220 6 L 220 5 z M 73 6 L 74 6 L 74 7 L 75 7 L 75 8 L 76 8 L 76 9 L 77 9 L 77 10 L 78 10 L 78 11 L 79 11 L 79 12 L 80 12 L 80 11 L 81 11 L 81 10 L 82 10 L 82 9 L 83 9 L 83 8 L 84 8 L 84 7 L 85 7 L 85 6 L 86 6 L 86 7 L 86 8 L 86 9 L 86 10 L 86 11 L 86 12 L 86 13 L 86 14 L 86 15 L 86 16 L 86 17 L 86 18 L 86 19 L 86 20 L 86 21 L 86 22 L 86 23 L 86 24 L 86 25 L 86 26 L 86 27 L 86 28 L 86 29 L 85 29 L 84 29 L 83 29 L 82 29 L 81 29 L 80 29 L 79 29 L 78 29 L 77 29 L 76 29 L 75 29 L 74 29 L 73 29 L 73 28 L 73 27 L 73 26 L 73 25 L 73 24 L 73 23 L 73 22 L 73 21 L 73 20 L 73 19 L 73 18 L 73 17 L 73 16 L 73 15 L 73 14 L 73 13 L 73 12 L 73 11 L 73 10 L 73 9 L 73 8 L 73 7 L 73 6 z M 52 8 L 53 8 L 53 9 L 53 10 L 54 10 L 54 11 L 54 12 L 55 12 L 55 13 L 56 13 L 56 14 L 56 15 L 57 15 L 57 16 L 57 17 L 57 18 L 56 18 L 56 19 L 56 20 L 55 20 L 55 21 L 54 21 L 54 22 L 54 23 L 53 23 L 53 24 L 53 25 L 52 25 L 52 24 L 52 23 L 52 22 L 52 21 L 52 20 L 52 19 L 52 18 L 52 17 L 52 16 L 52 15 L 52 14 L 52 13 L 52 12 L 52 11 L 52 10 L 52 9 L 52 8 z M 65 8 L 66 8 L 66 9 L 66 10 L 66 11 L 66 12 L 66 13 L 66 14 L 66 15 L 66 16 L 66 17 L 66 18 L 66 19 L 66 20 L 66 21 L 66 22 L 66 23 L 66 24 L 66 25 L 65 25 L 65 24 L 65 23 L 64 23 L 64 22 L 63 22 L 63 21 L 63 20 L 62 20 L 62 19 L 62 18 L 61 18 L 61 17 L 60 17 L 60 16 L 61 16 L 61 15 L 61 14 L 62 14 L 62 13 L 63 13 L 63 12 L 63 11 L 64 11 L 64 10 L 65 10 L 65 9 L 65 8 z M 125 9 L 126 9 L 126 10 L 127 10 L 127 11 L 128 11 L 128 12 L 129 12 L 129 13 L 130 13 L 130 14 L 131 14 L 131 15 L 132 15 L 132 16 L 133 16 L 133 17 L 134 17 L 134 18 L 135 18 L 135 19 L 136 19 L 136 20 L 137 20 L 137 21 L 137 22 L 137 23 L 136 23 L 136 22 L 135 22 L 135 21 L 134 21 L 134 20 L 133 20 L 133 19 L 132 19 L 132 18 L 131 18 L 131 17 L 130 17 L 130 16 L 129 16 L 129 15 L 128 15 L 128 14 L 127 14 L 127 13 L 126 13 L 126 12 L 125 12 L 125 11 L 125 10 L 125 9 z M 204 9 L 205 9 L 206 9 L 206 10 L 207 10 L 208 10 L 208 11 L 209 11 L 210 11 L 210 12 L 211 12 L 211 13 L 212 13 L 212 14 L 212 15 L 212 16 L 212 17 L 212 18 L 212 19 L 212 20 L 212 21 L 212 22 L 212 23 L 212 24 L 212 25 L 212 26 L 212 27 L 212 28 L 212 29 L 211 29 L 210 29 L 209 29 L 208 29 L 207 29 L 206 29 L 205 29 L 204 29 L 203 29 L 202 29 L 201 29 L 200 29 L 199 29 L 198 29 L 198 28 L 198 27 L 198 26 L 198 25 L 198 24 L 198 23 L 198 22 L 198 21 L 198 20 L 198 19 L 198 18 L 198 17 L 198 16 L 198 15 L 198 14 L 198 13 L 199 13 L 199 12 L 200 12 L 200 11 L 201 11 L 202 11 L 202 10 L 203 10 L 204 10 L 204 9 z M 234 9 L 235 9 L 235 10 L 236 10 L 236 11 L 237 11 L 237 12 L 238 12 L 238 13 L 239 13 L 239 14 L 240 14 L 240 15 L 239 15 L 239 16 L 238 16 L 238 17 L 237 17 L 237 18 L 236 18 L 236 19 L 235 19 L 235 20 L 234 20 L 234 19 L 234 18 L 234 17 L 234 16 L 234 15 L 234 14 L 234 13 L 234 12 L 234 11 L 234 10 L 234 9 z M 148 12 L 149 12 L 150 12 L 150 13 L 151 13 L 151 14 L 152 14 L 152 15 L 153 15 L 153 16 L 154 16 L 154 17 L 153 17 L 153 18 L 152 18 L 152 19 L 151 19 L 151 20 L 150 20 L 150 21 L 149 21 L 148 21 L 148 20 L 147 20 L 147 19 L 146 19 L 146 18 L 145 18 L 145 17 L 144 17 L 144 16 L 145 16 L 145 15 L 146 15 L 146 14 L 147 14 L 147 13 L 148 13 L 148 12 z M 125 15 L 126 15 L 126 16 L 127 16 L 127 17 L 128 17 L 128 18 L 129 18 L 129 19 L 130 19 L 130 20 L 131 20 L 131 21 L 132 21 L 132 22 L 133 22 L 133 23 L 134 23 L 134 24 L 135 24 L 135 25 L 136 25 L 136 26 L 137 26 L 137 27 L 137 28 L 137 29 L 136 29 L 135 29 L 134 29 L 133 29 L 132 29 L 131 29 L 130 29 L 129 29 L 128 29 L 127 29 L 126 29 L 125 29 L 125 28 L 125 27 L 125 26 L 125 25 L 125 24 L 125 23 L 125 22 L 125 21 L 125 20 L 125 19 L 125 18 L 125 17 L 125 16 L 125 15 z M 38 18 L 39 18 L 39 19 L 40 19 L 40 20 L 41 20 L 42 20 L 42 21 L 43 21 L 43 22 L 44 22 L 44 23 L 43 23 L 43 24 L 42 24 L 41 24 L 41 25 L 40 25 L 40 26 L 39 26 L 38 26 L 38 25 L 38 24 L 38 23 L 38 22 L 38 21 L 38 20 L 38 19 L 38 18 z M 58 19 L 59 19 L 59 20 L 60 20 L 60 21 L 61 21 L 61 22 L 61 23 L 62 23 L 62 24 L 63 24 L 63 25 L 63 26 L 64 26 L 64 27 L 65 27 L 65 28 L 65 29 L 64 29 L 63 29 L 62 29 L 61 29 L 60 29 L 59 29 L 58 29 L 57 29 L 56 29 L 55 29 L 54 29 L 53 29 L 53 28 L 53 27 L 54 27 L 54 26 L 55 26 L 55 25 L 55 24 L 56 24 L 56 23 L 56 22 L 57 22 L 57 21 L 58 21 L 58 20 L 58 19 z M 112 20 L 113 20 L 114 20 L 114 21 L 114 22 L 115 22 L 115 23 L 115 24 L 116 24 L 116 25 L 116 26 L 116 27 L 117 27 L 117 28 L 117 29 L 116 29 L 115 29 L 114 29 L 113 29 L 112 29 L 111 29 L 110 29 L 109 29 L 109 28 L 109 27 L 110 27 L 110 26 L 110 25 L 111 25 L 111 24 L 111 23 L 111 22 L 112 22 L 112 21 L 112 20 z " />
</svg>
